<svg id="Capa_1" enable-background="new 0 0 512 512" height="512" viewBox="0 0 512 512" width="512" xmlns="http://www.w3.org/2000/svg"><g><path d="m433.191 470.433h-354.382v-252.294c0-6.243 5.061-11.305 11.305-11.305h331.773c6.243 0 11.305 5.061 11.305 11.305v252.294z" fill="#ecbd83"/><path d="m433.191 463.581v45.954c0 1.361-1.103 2.464-2.464 2.464h-21.385c-2.395 0-4.548-1.458-5.438-3.682l-3.236-8.089c-.889-2.224-3.043-3.682-5.438-3.682h-277.665c-2.276 0-4.345 1.318-5.307 3.38l-4.057 8.693c-.962 2.062-3.032 3.38-5.307 3.38h-21.621c-1.361 0-2.464-1.103-2.464-2.464v-45.954z" fill="#d39667"/><g><path d="m248.274 206.834h15.453v256.746h-15.453z" fill="#bc7a4d"/></g><circle cx="227.67" cy="335.154" fill="#7c5757" r="7.726"/><circle cx="286.39" cy="335.154" fill="#7c5757" r="7.726"/><g><path d="m372.41 82.183c-4.267 0-7.726 3.459-7.726 7.726v53.054c0 4.267 3.459 7.726 7.726 7.726s7.726-3.459 7.726-7.726v-53.054c.001-4.267-3.458-7.726-7.726-7.726z" fill="#7c5757"/><path d="m387.414 206.834h-28.977c-5.865 0-10.829-4.33-11.626-10.141l-6.138-44.773c-.649-4.737 3.032-8.958 7.813-8.958h48.879c4.781 0 8.463 4.221 7.813 8.958l-6.138 44.773c-.796 5.811-5.761 10.141-11.626 10.141z" fill="#eceaec"/><path d="m400.194 188.245-1.154 8.448c-.793 5.81-5.759 10.137-11.631 10.137h-28.969c-5.872 0-10.838-4.327-11.631-10.137l-1.174-8.54c.464.062.937.093 1.422.093h53.137z" fill="#dad8db"/><path d="m378.348 121.292h5.11c14.659 0 26.542-11.883 26.542-26.542v-5.11c0-2.995-2.428-5.423-5.423-5.423h-5.11c-14.659 0-26.542 11.883-26.542 26.542v5.11c.001 2.995 2.428 5.423 5.423 5.423z" fill="#95d5a4"/><path d="m366.988 111.504h-11.226c-14.659 0-26.542-11.883-26.542-26.542v-11.225c0-2.995 2.428-5.423 5.423-5.423h11.226c14.659 0 26.542 11.883 26.542 26.542v11.226c-.001 2.994-2.428 5.422-5.423 5.422z" fill="#ccf49f"/></g><path d="m184.616 88.879h-70.652c-5.033 0-9.113-4.08-9.113-9.113v-70.653c0-5.033 4.08-9.113 9.113-9.113h70.652c5.033 0 9.113 4.08 9.113 9.113v70.652c0 5.033-4.08 9.114-9.113 9.114z" fill="#fee07d"/><path d="m184.616 0h-2.645c-1.638 41.725-35.315 75.197-77.12 76.521v3.244c0 5.033 4.08 9.113 9.113 9.113h70.652c5.033 0 9.113-4.08 9.113-9.113v-70.652c0-5.033-4.08-9.113-9.113-9.113z" fill="#ffc269"/><path d="m141.563 50.481h15.453v38.398h-15.453z" fill="#bc7a4d"/><path d="m149.635 67.86h-.691c-12.744 0-23.075-10.331-23.075-23.075v-.691c0-12.744 10.331-23.075 23.075-23.075h.691c12.744 0 23.075 10.331 23.075 23.075v.691c0 12.744-10.331 23.075-23.075 23.075z" fill="#b8b6ff"/></g></svg>